<svg width="32" height="32" xmlns="http://www.w3.org/2000/svg">
 <g>
  <title>Layer 1</title>
  <g id="layer1">
   <path d="m3.794012,18.589996l2.373868,0.023277l-0.082759,10.570492l15.798379,0l0,-10.532253l2.50141,0l0,13.099483l-20.603719,0l0.012826,-13.160992l-0.000005,-0.000008z" id="path2830" fill="#919191"/>
   <rect width="12.375397" height="2.633065" x="7.664955" y="24.839204" id="rect3604" fill="#919191"/>
   <rect width="23.06686" height="5.00392" x="10.263314" y="38.842407" transform="matrix(0.53686 0.051814 -0.051814 0.53686 4.45763 -1.28395)" id="rect3606" fill="#a78b68"/>
   <rect width="23.06686" height="5.00392" x="16.333257" y="26.263228" transform="matrix(0.519077 0.146503 -0.146503 0.519077 4.45763 -1.28395)" id="rect3606-1" fill="#c19653"/>
   <rect width="23.06686" height="5.00392" x="21.510731" y="8.600501" transform="matrix(0.461676 0.278853 -0.278853 0.461676 4.45763 -1.28395)" id="rect3606-1-3" fill="#d48c28"/>
   <rect width="23.06686" height="5.00392" x="21.055801" y="-15.911002" transform="matrix(0.314135 0.438432 -0.438432 0.314135 4.45763 -1.28395)" id="rect3606-1-3-7" fill="#fe8908"/>
   <rect width="23.06686" height="5.00392" x="9.438238" y="-39.792395" transform="matrix(0.088891 0.531979 -0.531979 0.088891 4.45763 -1.28395)" id="rect3606-1-3-7-6" fill="#ff7a15"/>
  </g>
 </g>
</svg>